<?xml version="1.0" encoding="utf-8"?>
<svg viewBox="12.113 2.019 994.616 588.829" xmlns="http://www.w3.org/2000/svg">
  <path d="M 219.044 34.377 C 166.044 34.377 123.044 77.377 123.044 130.377 L 123.044 290.377 C 123.044 343.377 166.044 386.377 219.044 386.377 C 272.044 386.377 315.044 343.377 315.044 290.377 L 315.044 130.377 C 315.044 77.377 272.044 34.377 219.044 34.377 Z M 91.044 250.377 C 91.044 237.077 80.344 226.377 67.044 226.377 C 53.744 226.377 43.044 237.077 43.044 250.377 L 43.044 290.377 C 43.044 379.477 109.244 453.077 195.044 464.777 L 195.044 498.377 L 147.044 498.377 C 133.744 498.377 123.044 509.077 123.044 522.377 C 123.044 535.677 133.744 546.377 147.044 546.377 L 219.044 546.377 L 291.044 546.377 C 304.344 546.377 315.044 535.677 315.044 522.377 C 315.044 509.077 304.344 498.377 291.044 498.377 L 243.044 498.377 L 243.044 464.777 C 328.844 453.077 395.044 379.477 395.044 290.377 L 395.044 250.377 C 395.044 237.077 384.344 226.377 371.044 226.377 C 357.744 226.377 347.044 237.077 347.044 250.377 L 347.044 290.377 C 347.044 361.077 289.744 418.377 219.044 418.377 C 148.344 418.377 91.044 361.077 91.044 290.377 L 91.044 250.377 Z" style="opacity: 0.8;" transform="matrix(1, 0, 0, 1, 0, -1.4210854715202004e-14)"/>
  <path d="M 681.398 179.431 C 681.398 105.53 601.398 59.342 537.398 96.292 C 507.696 113.441 489.398 145.133 489.398 179.431 C 489.398 253.332 569.398 299.52 633.398 262.569 C 663.101 245.421 681.398 213.728 681.398 179.431 Z M 725.798 211.431 C 711.298 275.531 653.898 323.431 585.398 323.431 C 505.898 323.431 441.398 258.931 441.398 179.431 C 441.398 99.931 505.898 35.431 585.398 35.431 C 653.898 35.431 711.298 83.331 725.798 147.431 L 797.598 147.431 C 806.398 137.631 819.198 131.431 833.398 131.431 L 937.398 131.431 C 963.898 131.431 985.398 152.931 985.398 179.431 C 985.398 205.931 963.898 227.431 937.398 227.431 L 833.398 227.431 C 819.198 227.431 806.398 221.231 797.598 211.431 L 725.798 211.431 Z M 585.398 115.431 C 634.665 115.431 665.458 168.764 640.824 211.431 C 629.391 231.233 608.263 243.431 585.398 243.431 C 536.131 243.431 505.339 190.098 529.973 147.431 C 541.405 127.629 562.533 115.431 585.398 115.431 Z M 841.398 275.431 C 854.698 275.431 865.398 286.131 865.398 299.431 L 865.398 307.431 L 961.398 307.431 C 974.698 307.431 985.398 318.131 985.398 331.431 C 985.398 344.731 974.698 355.431 961.398 355.431 L 721.398 355.431 C 708.098 355.431 697.398 344.731 697.398 331.431 C 697.398 318.131 708.098 307.431 721.398 307.431 L 817.398 307.431 L 817.398 299.431 C 817.398 286.131 828.098 275.431 841.398 275.431 Z M 729.398 499.431 L 729.398 387.431 L 953.398 387.431 L 953.398 499.431 C 953.398 525.931 931.898 547.431 905.398 547.431 L 777.398 547.431 C 750.898 547.431 729.398 525.931 729.398 499.431 Z M 489.398 355.431 L 569.398 355.431 L 585.398 355.431 L 617.398 355.431 C 643.898 355.431 665.398 376.931 665.398 403.431 C 665.398 429.931 643.898 451.431 617.398 451.431 L 601.398 451.431 C 601.398 469.131 587.098 483.431 569.398 483.431 L 505.398 483.431 C 487.698 483.431 473.398 469.131 473.398 451.431 L 473.398 371.431 C 473.398 362.631 480.598 355.431 489.398 355.431 Z M 617.398 419.431 C 626.198 419.431 633.398 412.231 633.398 403.431 C 633.398 394.631 626.198 387.431 617.398 387.431 L 601.398 387.431 L 601.398 419.431 L 617.398 419.431 Z M 465.398 499.431 L 641.398 499.431 C 654.698 499.431 665.398 510.131 665.398 523.431 C 665.398 536.731 654.698 547.431 641.398 547.431 L 465.398 547.431 C 452.098 547.431 441.398 536.731 441.398 523.431 C 441.398 510.131 452.098 499.431 465.398 499.431 Z" transform="matrix(1, 0, 0, 1, 0, -1.4210854715202004e-14)"/>
</svg>